<svg id="visual" viewBox="0 0 1280 70" width="1280" height="70" xmlns="http://www.w3.org/2000/svg"
  xmlns:xlink="http://www.w3.org/1999/xlink" version="1.1">
  <path
    d="M0 18L11.8 17.7C23.7 17.3 47.3 16.7 71 18.7C94.7 20.7 118.3 25.3 142 25.3C165.7 25.3 189.3 20.7 213 18.5C236.7 16.3 260.3 16.7 284.2 18.5C308 20.3 332 23.7 355.8 26C379.7 28.3 403.3 29.7 427 29.3C450.7 29 474.3 27 498 23.7C521.7 20.3 545.3 15.7 569 14C592.7 12.3 616.3 13.7 640 13.7C663.7 13.7 687.3 12.3 711 15C734.7 17.7 758.3 24.3 782 26.5C805.7 28.7 829.3 26.3 853 23C876.7 19.7 900.3 15.3 924.2 16.7C948 18 972 25 995.8 27.5C1019.7 30 1043.3 28 1067 27C1090.7 26 1114.3 26 1138 26.7C1161.7 27.3 1185.3 28.7 1209 26.2C1232.7 23.7 1256.3 17.3 1268.2 14.2L1280 11L1280 71L1268.2 71C1256.3 71 1232.7 71 1209 71C1185.3 71 1161.7 71 1138 71C1114.3 71 1090.7 71 1067 71C1043.3 71 1019.7 71 995.8 71C972 71 948 71 924.2 71C900.3 71 876.7 71 853 71C829.3 71 805.7 71 782 71C758.3 71 734.7 71 711 71C687.3 71 663.7 71 640 71C616.3 71 592.7 71 569 71C545.3 71 521.7 71 498 71C474.3 71 450.7 71 427 71C403.3 71 379.7 71 355.8 71C332 71 308 71 284.2 71C260.3 71 236.7 71 213 71C189.3 71 165.7 71 142 71C118.3 71 94.7 71 71 71C47.3 71 23.7 71 11.8 71L0 71Z"
    fill="#247dc7"></path>
  <path
    d="M0 38L11.8 37C23.7 36 47.3 34 71 31.5C94.7 29 118.3 26 142 27.5C165.7 29 189.3 35 213 38.2C236.7 41.3 260.3 41.7 284.2 38.7C308 35.7 332 29.3 355.8 26.3C379.7 23.3 403.3 23.7 427 26.7C450.7 29.7 474.3 35.3 498 35.5C521.7 35.7 545.3 30.3 569 30.2C592.7 30 616.3 35 640 35.7C663.7 36.3 687.3 32.7 711 31.3C734.7 30 758.3 31 782 32.2C805.7 33.3 829.3 34.7 853 35.2C876.7 35.7 900.3 35.3 924.2 36C948 36.7 972 38.3 995.8 38C1019.7 37.7 1043.3 35.3 1067 33.8C1090.7 32.3 1114.3 31.7 1138 32C1161.7 32.3 1185.3 33.7 1209 34.5C1232.7 35.3 1256.3 35.7 1268.2 35.8L1280 36L1280 71L1268.2 71C1256.3 71 1232.7 71 1209 71C1185.3 71 1161.7 71 1138 71C1114.3 71 1090.7 71 1067 71C1043.3 71 1019.7 71 995.8 71C972 71 948 71 924.2 71C900.3 71 876.7 71 853 71C829.3 71 805.7 71 782 71C758.3 71 734.7 71 711 71C687.3 71 663.7 71 640 71C616.3 71 592.7 71 569 71C545.3 71 521.7 71 498 71C474.3 71 450.7 71 427 71C403.3 71 379.7 71 355.8 71C332 71 308 71 284.2 71C260.3 71 236.7 71 213 71C189.3 71 165.7 71 142 71C118.3 71 94.7 71 71 71C47.3 71 23.7 71 11.8 71L0 71Z"
    fill="#3796d9"></path>
  <path
    d="M0 41L11.8 40.3C23.7 39.7 47.3 38.3 71 39.3C94.7 40.3 118.3 43.7 142 46C165.7 48.3 189.3 49.7 213 50.3C236.7 51 260.3 51 284.2 48.8C308 46.7 332 42.3 355.8 40.7C379.7 39 403.3 40 427 41.2C450.7 42.3 474.3 43.7 498 43.2C521.7 42.7 545.3 40.3 569 40.3C592.7 40.3 616.3 42.7 640 43.8C663.7 45 687.3 45 711 44.3C734.7 43.7 758.3 42.3 782 43.3C805.7 44.3 829.3 47.7 853 47.5C876.7 47.3 900.3 43.7 924.2 42.7C948 41.7 972 43.3 995.8 44.2C1019.7 45 1043.3 45 1067 45C1090.7 45 1114.3 45 1138 45.8C1161.7 46.7 1185.3 48.3 1209 47.7C1232.7 47 1256.3 44 1268.2 42.5L1280 41L1280 71L1268.2 71C1256.3 71 1232.7 71 1209 71C1185.3 71 1161.7 71 1138 71C1114.3 71 1090.7 71 1067 71C1043.3 71 1019.7 71 995.8 71C972 71 948 71 924.2 71C900.3 71 876.7 71 853 71C829.3 71 805.7 71 782 71C758.3 71 734.7 71 711 71C687.3 71 663.7 71 640 71C616.3 71 592.7 71 569 71C545.3 71 521.7 71 498 71C474.3 71 450.7 71 427 71C403.3 71 379.7 71 355.8 71C332 71 308 71 284.2 71C260.3 71 236.7 71 213 71C189.3 71 165.7 71 142 71C118.3 71 94.7 71 71 71C47.3 71 23.7 71 11.8 71L0 71Z"
    fill="#4eb0ea"></path>
  <path
    d="M0 60L11.8 58.5C23.7 57 47.3 54 71 53C94.7 52 118.3 53 142 54.5C165.7 56 189.3 58 213 58.5C236.7 59 260.3 58 284.2 56.3C308 54.7 332 52.3 355.8 53.2C379.7 54 403.3 58 427 57.8C450.7 57.7 474.3 53.3 498 52C521.7 50.7 545.3 52.3 569 53C592.7 53.7 616.3 53.3 640 54.3C663.7 55.3 687.3 57.7 711 58C734.7 58.3 758.3 56.7 782 56.2C805.7 55.7 829.3 56.3 853 55.3C876.7 54.3 900.3 51.7 924.2 50.7C948 49.7 972 50.3 995.8 52.2C1019.7 54 1043.3 57 1067 57C1090.7 57 1114.3 54 1138 53C1161.7 52 1185.3 53 1209 54.3C1232.7 55.7 1256.3 57.3 1268.2 58.2L1280 59L1280 71L1268.2 71C1256.3 71 1232.7 71 1209 71C1185.3 71 1161.7 71 1138 71C1114.3 71 1090.7 71 1067 71C1043.3 71 1019.7 71 995.8 71C972 71 948 71 924.2 71C900.3 71 876.7 71 853 71C829.3 71 805.7 71 782 71C758.3 71 734.7 71 711 71C687.3 71 663.7 71 640 71C616.3 71 592.7 71 569 71C545.3 71 521.7 71 498 71C474.3 71 450.7 71 427 71C403.3 71 379.7 71 355.8 71C332 71 308 71 284.2 71C260.3 71 236.7 71 213 71C189.3 71 165.7 71 142 71C118.3 71 94.7 71 71 71C47.3 71 23.7 71 11.8 71L0 71Z"
    fill="#69cafa"></path>
</svg>